<?xml version="1.0" encoding="utf-8"?>
<!-- Generator: Adobe Illustrator 26.0.3, SVG Export Plug-In . SVG Version: 6.00 Build 0)  -->
<svg version="1.1" id="Capa_1" xmlns="http://www.w3.org/2000/svg" xmlns:xlink="http://www.w3.org/1999/xlink" x="0px" y="0px"
	 viewBox="0 0 147 145" style="enable-background:new 0 0 147 145;" xml:space="preserve">
<style type="text/css">
	.st0{clip-path:url(#SVGID_00000137117410988022648470000002658512356395330956_);fill:#DF6618;}
	.st1{clip-path:url(#SVGID_00000137117410988022648470000002658512356395330956_);fill:#222257;}
</style>
<g>
	<defs>
		<circle id="SVGID_1_" cx="75.1" cy="74.1" r="64.8"/>
	</defs>
	<clipPath id="SVGID_00000010292701756566428020000000267049782188431527_">
		<use xlink:href="#SVGID_1_"  style="overflow:visible;"/>
	</clipPath>
	<path style="clip-path:url(#SVGID_00000010292701756566428020000000267049782188431527_);fill:#DF6618;" d="M85.6,122.7
		c-2.5,0-4.9-0.8-6.9-2.4c-1.3-1-2.7-4.3-4.1-4.5c-3.8-0.6-3.6,9.5-3.5,11.7c0.2,8.5,3.5,11.4,9.5,16.6
		c-15.1-1.8-29.3-4.6-42.9-11.5c-9.2-4.6-20.3-11.7-24-21.8c-0.7-1.9-8.7-23.4-6.7-24.8C7,86,17,76.1,22,77.8
		c-4.5,14.1,9.3,30.3,24,22c7.6-4.3,8.2-10.3,8.2-18.1c0-3-0.9-3.9,2-3.9c3.4,0,6.8,0,10.2,0c6.4,0,5.4-0.1,5.4,6.2
		c0,6.2,0,12.3,0,18.5c0,3.5,5.6,0.4,5.8,0.8c3.9-3.9,10.2-4.4,14.7-1.1C100.8,108.6,96.2,122.7,85.6,122.7z"/>
	<path style="clip-path:url(#SVGID_00000010292701756566428020000000267049782188431527_);fill:#222257;" d="M122.9,62.6
		c0,2.5-0.8,5-2.3,7c-1,1.3-4.2,2.8-4.4,4.2c-0.5,3.8,9.6,3.5,11.8,3.4c8.5-0.4,12.4-5,17.5-11.1c-1.5,15.1-5.2,30.7-11.9,44.4
		c-4.5,9.2-11.1,18.6-21,22.4c-1.9,0.7-25.2,7.7-26.6,5.7c0-0.1-8.5-6.7-6.9-11.7c10.9,3.3,22.2-2.8,23.6-14.7
		c0.8-6.4-2.7-12.4-8-15.8c-4.8-3-10.7-1.8-16.1-1.7c-0.1-5.9-0.2-11.7-0.3-17.6c4.3-0.1,8.5-0.1,12.8-0.2c2.3,0,10.9,1.3,12.8-0.2
		c3.3-2.6-1.5-7.1-2.5-9.4c-1.8-4.2-0.9-9.2,2.2-12.4C110.3,47.8,122.7,52.7,122.9,62.6C122.9,67.1,122.8,56.3,122.9,62.6z"/>
	<path style="clip-path:url(#SVGID_00000010292701756566428020000000267049782188431527_);fill:#DF6618;" d="M63,25.5
		c2.5,0,4.9,0.8,6.9,2.4c1.3,1,2.7,4.3,4.1,4.5c3.8,0.6,3.6-9.5,3.5-11.7c-0.2-8.5-4.8-12.5-10.8-17.7C81.9,4.7,97.4,8.7,111,15.5
		c9.2,4.6,18.5,11.4,22.1,21.4c0.7,1.9,7.3,25.3,5.3,26.7c-0.1,0-6.9,8.4-11.8,6.7c4.5-14.1-9.3-30.3-24-22
		c-7.6,4.3-8.2,10.3-8.2,18.1c0,3,0.9,3.9-2,3.9c-3.4,0-6.8,0-10.2,0c-6.4,0-5.4,0.1-5.4-6.2c0-6.2,0-12.3,0-18.5
		c0-3.5-5.6-0.4-5.8-0.8c-3.9,3.9-10.2,4.4-14.7,1.1C47.8,39.6,52.4,25.5,63,25.5z"/>
	<path style="clip-path:url(#SVGID_00000010292701756566428020000000267049782188431527_);fill:#222257;" d="M27.2,84
		c-0.1-2.5,0.7-5,2.2-7c1-1.3,4.2-2.8,4.4-4.2c0.4-3.8-9.6-3.3-11.8-3.2c-8.5,0.5-12.4,5.2-17.3,11.3c1.3-15.2,4.8-30.8,11.3-44.6
		c4.4-9.3,10.8-18.8,20.7-22.7c1.8-0.7,25.1-8,26.5-6c0,0.1,8.6,6.6,7,11.6c-11-3.1-22.2,3.1-23.4,15c-0.7,6.4,2.9,12.4,8.2,15.7
		c4.8,3,10.8,1.7,16.2,1.5c0.2,5.9,0.3,11.7,0.5,17.6c-4.3,0.1-8.5,0.3-12.8,0.4c-2.1,0.1-11.9-1-13.1,0.8c-2.3,3.4,2.3,6.7,3.3,9.7
		c1.5,4,0.5,8.5-2.4,11.6C39.9,98.6,27.5,93.9,27.2,84C27.1,79.5,27.4,90.3,27.2,84z"/>
</g>
</svg>
