<?xml version="1.0" encoding="utf-8"?>
<!-- Generator: Adobe Illustrator 26.0.3, SVG Export Plug-In . SVG Version: 6.00 Build 0)  -->
<svg version="1.1" id="Capa_1" xmlns="http://www.w3.org/2000/svg" xmlns:xlink="http://www.w3.org/1999/xlink" x="0px" y="0px"
	 viewBox="0 0 66 90" style="enable-background:new 0 0 66 90;" xml:space="preserve">
<style type="text/css">
	.st0{fill:#222257;}
</style>
<g>
	<path class="st0" d="M47,12.7C47,12.7,47,12.7,47,12.7C47,12.7,47,12.7,47,12.7C47,12.7,47,12.7,47,12.7z"/>
	<path class="st0" d="M47,12.7C47,12.7,47,12.7,47,12.7C46.9,9.1,47,11.2,47,12.7z"/>
	<path class="st0" d="M47,12.7C47,12.7,47,12.7,47,12.7C47,13.9,47,14.7,47,12.7z"/>
	<path class="st0" d="M64.1,24.2c0-0.7,0-1.3,0-2c-3.1,2.9-6.6,4.7-11.9,5c-2.2,0.1-12.3,0.5-11.8-3.4c0.2-1.4,3.4-2.9,4.4-4.2
		c1.5-2,2.3-4.4,2.3-6.9c0,0,0,0,0,0C46.8,2.9,34.4-2,27.6,5.1c-3.2,3.3-4.1,8.2-2.2,12.4c1,2.3,5.8,6.8,2.5,9.4
		C26,28.3,17.5,27,15.2,27.1c-4.3,0.1-8.5,0.1-12.8,0.2C2.5,33.1,2.6,39,2.7,44.8c5.4-0.1,11.4-1.3,16.1,1.7c5.3,3.4,8.8,9.4,8,15.8
		c-1.4,11.9-12.7,18-23.6,14.7c-1.4,4.2,4.5,9.6,6.3,11.2C40.4,83.3,64.1,56.5,64.1,24.2z"/>
</g>
</svg>
