<?xml version="1.0" encoding="utf-8"?>
<!-- Generator: Adobe Illustrator 26.0.3, SVG Export Plug-In . SVG Version: 6.00 Build 0)  -->
<svg version="1.1" id="Capa_1" xmlns="http://www.w3.org/2000/svg" xmlns:xlink="http://www.w3.org/1999/xlink" x="0px" y="0px"
	 viewBox="0 0 92 66" style="enable-background:new 0 0 92 66;" xml:space="preserve">
<style type="text/css">
	.st0{fill:#DF6618;}
</style>
<g>
	<path class="st0" d="M24.8,25.7c-1.4-0.2-2.8-3.5-4.1-4.5c-2-1.5-4.4-2.4-6.9-2.4c-10.7,0-15.3,14.1-6.7,20.4
		c4.4,3.2,10.8,2.8,14.7-1.1c0.2,0.5,5.8-2.7,5.8,0.8c0,6.2,0,12.3,0,18.5c0,6.3-1,6.2,5.4,6.2c3.4,0,6.8,0,10.2,0
		c2.9,0,2-0.9,2-3.9c0-7.9,0.7-13.8,8.2-18.1c14.7-8.3,28.4,7.9,24,22c4.9,1.8,11.7-6.6,11.8-6.7c0.3-0.2,0.4-0.8,0.4-1.6
		c-5.7-30-32-52.8-63.7-52.8c-0.6,0-1.1,0-1.7,0c2.5,3,4.1,6.4,4.2,11.3C28.4,16.1,28.6,26.2,24.8,25.7z"/>
</g>
</svg>
